<?xml version="1.0" encoding="utf-8"?>
<!-- Generator: Adobe Illustrator 18.1.1, SVG Export Plug-In . SVG Version: 6.00 Build 0)  -->
<svg version="1.1" id="Layer_1" xmlns="http://www.w3.org/2000/svg" xmlns:xlink="http://www.w3.org/1999/xlink" x="0px" y="0px"
	 viewBox="0 0 1000 1000" enable-background="new 0 0 1000 1000" xml:space="preserve">
<rect y="-0.5" fill="#6C6C6C" width="1000" height="1000"/>
<path fill="#DCDBDB" d="M500.5,161.5l89.6-44.9l25.7,20.5v165.1l-38.5,25.7V161.4l-76.8,38.4L500.5,161.5L500.5,161.5z"/>
<path fill="#A8A6A6" d="M423.6,327.9l-38.4-25.7V137.1l25.6-20.5l89.6,44.9v38.3l-76.8-38.4V187l51.5,25.6v25.6l-51.5-25.6V327.9z"
	/>
<rect x="115.6" y="356.5" fill="#F3F3F3" stroke="#000000" stroke-width="3" stroke-miterlimit="10" width="769.9" height="506.3"/>
<rect x="183.5" y="423.1" fill="#D7D7D8" width="632.7" height="93.4"/>
<rect x="183.3" y="566.5" fill="#D7D7D8" width="632.7" height="93.4"/>
<rect x="558.1" y="709.9" fill="#6D869C" width="259.6" height="93.4"/>
<rect x="184.8" y="394.7" fill="#676565" width="258" height="18.4"/>
<rect x="184.8" y="538.1" fill="#676565" width="258" height="18.4"/>
</svg>
